<?xml version="1.0" standalone="no"?>
<!DOCTYPE svg PUBLIC "-//W3C//DTD SVG 20010904//EN"
 "http://www.w3.org/TR/2001/REC-SVG-20010904/DTD/svg10.dtd">
<svg version="1.0" xmlns="http://www.w3.org/2000/svg"
 width="837.000000pt" height="217.000000pt" viewBox="0 0 837.000000 217.000000"
 preserveAspectRatio="xMidYMid meet">

<g transform="translate(0.000000,217.000000) scale(0.100000,-0.100000)"
fill="#000000" stroke="none">
<path d="M1818 1412 c-48 -3 -66 -23 -33 -36 12 -4 15 -32 15 -160 0 -178 -1
-176 89 -176 61 0 88 10 123 45 49 49 46 164 -5 200 -24 17 -102 20 -112 5
-15 -25 -24 -5 -27 58 l-3 67 -47 -3z m136 -184 c48 -68 -13 -187 -68 -132
-18 18 -22 104 -6 135 14 26 55 24 74 -3z"/>
<path d="M2101 1391 c-7 -13 -6 -23 2 -36 26 -34 89 -1 74 39 -9 23 -63 21
-76 -3z"/>
<path d="M5647 1404 c-14 -15 -6 -34 14 -34 14 0 19 5 17 17 -3 18 -20 27 -31
17z"/>
<path d="M6046 1384 c-26 -38 -15 -47 22 -18 18 14 30 30 27 35 -11 17 -32 9
-49 -17z"/>
<path d="M6465 1401 c-3 -5 -1 -12 5 -16 15 -9 12 -56 -2 -54 -55 7 -98 -32
-98 -88 0 -69 46 -102 101 -73 13 7 19 7 19 0 0 -5 11 -10 25 -10 27 0 34 15
10 24 -12 4 -15 27 -15 116 0 102 -1 110 -19 110 -11 0 -22 -4 -26 -9z m13
-147 c4 -64 -15 -85 -53 -60 -47 31 -24 122 29 114 18 -3 21 -11 24 -54z"/>
<path d="M8067 1384 c-28 -38 -15 -50 21 -19 18 15 30 31 26 36 -9 16 -28 9
-47 -17z"/>
<path d="M4809 1392 c-61 -16 -89 -56 -89 -125 0 -76 59 -123 134 -107 43 8
46 31 4 29 -71 -5 -101 23 -100 94 1 26 8 47 23 63 28 30 69 32 76 4 8 -30 23
-24 23 9 0 24 -5 29 -28 33 -16 2 -35 2 -43 0z"/>
<path d="M30 946 l0 -443 68 -31 c126 -58 210 -75 372 -76 161 -1 241 16 372
76 l68 31 0 443 0 444 -440 0 -440 0 0 -444z m350 265 l55 -51 -140 0 -139 0
49 51 c55 56 82 71 105 58 8 -4 40 -30 70 -58z m351 3 l53 -54 -134 0 -135 0
61 60 c45 44 66 58 81 54 11 -3 44 -30 74 -60z m-405 -166 c43 -32 94 -81 94
-90 0 -4 -60 -8 -132 -8 l-133 0 62 60 c33 33 65 60 71 60 5 0 22 -10 38 -22z
m397 -38 l62 -60 -132 0 c-73 0 -133 3 -133 8 0 4 10 16 23 26 12 11 39 34 60
53 20 18 42 33 48 33 6 0 39 -27 72 -60z m-350 -210 l62 -60 -140 0 -140 0 62
60 c33 33 69 60 78 60 9 0 45 -27 78 -60z m350 0 l62 -60 -135 0 -134 0 59 60
c33 33 66 60 73 60 8 0 42 -27 75 -60z m-178 -210 l59 -60 -132 0 c-73 0 -132
4 -132 9 0 14 114 111 130 111 9 0 42 -27 75 -60z"/>
<path d="M1255 1383 c-28 -7 -82 -50 -97 -76 -48 -90 -18 -210 64 -253 31 -16
134 -19 172 -4 24 9 26 14 26 69 0 50 3 59 20 64 11 3 20 10 20 16 0 7 -30 11
-85 11 -67 0 -85 -3 -85 -14 0 -8 10 -16 23 -18 17 -2 23 -10 25 -39 4 -48
-16 -66 -55 -47 -58 27 -82 133 -43 196 25 40 59 54 125 50 44 -3 50 -1 53 18
2 15 -4 23 -20 28 -26 7 -113 6 -143 -1z"/>
<path d="M6810 1381 c0 -5 7 -11 15 -15 12 -4 15 -24 15 -91 0 -67 -3 -87 -15
-91 -36 -14 -9 -24 64 -24 72 0 80 2 86 21 8 23 -2 40 -13 22 -7 -11 -40 -18
-75 -15 -15 2 -18 9 -15 40 3 36 4 37 46 40 23 2 42 7 42 12 0 5 -19 10 -42
12 -40 3 -43 5 -46 36 -3 31 -2 32 37 32 23 0 41 -4 41 -10 0 -5 5 -10 10 -10
6 0 10 11 10 25 0 25 -1 25 -80 25 -44 0 -80 -4 -80 -9z"/>
<path d="M4945 1315 c-18 -17 -25 -35 -25 -64 0 -53 7 -69 41 -87 43 -22 93 1
109 50 30 92 -61 166 -125 101z m93 -64 c3 -46 -10 -71 -39 -71 -45 0 -65 84
-28 121 18 18 23 19 42 6 16 -10 23 -26 25 -56z"/>
<path d="M5181 1331 c-8 -5 -29 -7 -48 -4 -33 6 -47 -10 -19 -20 11 -5 14 -20
10 -64 -2 -32 -9 -59 -14 -61 -25 -9 -6 -22 30 -22 22 0 40 5 40 10 0 6 -5 10
-10 10 -7 0 -10 24 -8 63 3 62 3 62 33 62 30 0 30 0 33 -62 2 -39 -1 -63 -8
-63 -5 0 -10 -4 -10 -10 0 -5 18 -10 40 -10 22 0 40 5 40 10 0 6 -7 10 -15 10
-12 0 -15 14 -15 63 0 49 -4 68 -18 80 -21 19 -40 21 -61 8z"/>
<path d="M5330 1320 c-28 -28 -22 -49 20 -78 19 -13 35 -31 35 -40 0 -22 -43
-29 -51 -8 -9 25 -24 19 -24 -9 0 -22 4 -25 38 -25 78 0 97 69 30 105 -43 23
-50 45 -13 45 14 0 25 -4 25 -10 0 -5 5 -10 11 -10 6 0 9 10 7 23 -4 31 -50
35 -78 7z"/>
<path d="M5495 1328 c-32 -17 -45 -39 -45 -74 0 -69 42 -109 99 -94 37 9 41
34 4 26 -30 -7 -59 8 -65 33 -2 8 8 15 26 18 48 7 66 21 66 53 0 43 -42 62
-85 38z m45 -23 c19 -23 4 -45 -30 -45 -34 0 -38 14 -13 42 20 22 27 22 43 3z"/>
<path d="M5628 1332 c-33 -4 -37 -19 -7 -24 19 -3 21 -10 23 -76 2 -86 -6
-112 -35 -112 -26 0 -20 -24 7 -28 41 -6 58 32 61 133 2 102 -3 113 -49 107z"/>
<path d="M5765 1328 c-45 -24 -58 -78 -33 -133 18 -41 104 -53 116 -15 3 9 -4
10 -26 5 -24 -5 -35 -2 -52 15 -19 19 -19 47 0 35 5 -3 25 1 45 9 29 12 35 20
35 45 0 44 -41 63 -85 39z m45 -23 c19 -23 4 -45 -30 -45 -34 0 -38 14 -13 42
20 22 27 22 43 3z"/>
<path d="M5961 1331 c-8 -5 -29 -7 -48 -4 -21 4 -33 2 -33 -6 0 -6 7 -11 15
-11 23 0 21 -118 -2 -136 -16 -12 -12 -13 32 -13 44 0 48 1 33 13 -13 10 -18
28 -18 69 0 57 12 73 45 61 10 -4 15 0 15 15 0 22 -15 27 -39 12z"/>
<path d="M6033 1332 c-26 -4 -30 -17 -8 -25 10 -4 15 -26 17 -74 3 -66 4 -68
31 -71 29 -4 37 12 12 22 -11 4 -15 22 -15 75 0 38 -3 71 -7 73 -5 2 -18 2
-30 0z"/>
<path d="M6148 1333 c-34 -9 -20 -30 19 -29 53 1 57 -27 6 -40 -47 -11 -69
-48 -49 -79 11 -16 25 -20 80 -22 62 -1 85 8 51 21 -11 4 -15 21 -15 64 0 80
-25 103 -92 85z m62 -107 c0 -29 -22 -49 -44 -40 -24 9 -20 43 7 54 33 13 37
12 37 -14z"/>
<path d="M6605 1328 c-45 -24 -58 -78 -34 -132 19 -41 105 -54 117 -17 3 10
-3 11 -26 6 -24 -5 -36 -1 -53 16 l-22 22 49 16 c42 14 49 20 52 46 6 46 -37
69 -83 43z m53 -42 c-2 -16 -11 -22 -35 -24 -39 -4 -45 18 -12 42 27 19 51 10
47 -18z"/>
<path d="M7039 1311 c-36 -36 -39 -86 -8 -125 18 -23 28 -27 62 -24 24 2 42 9
45 17 3 10 -1 12 -18 8 -51 -13 -88 31 -74 88 8 33 50 45 68 19 13 -17 14 -16
21 5 15 48 -52 56 -96 12z"/>
<path d="M7195 1315 c-18 -17 -25 -35 -25 -64 0 -53 7 -69 39 -85 42 -21 89
-3 107 41 39 92 -55 175 -121 108z m85 -20 c6 -8 12 -30 12 -50 0 -20 -6 -42
-12 -50 -42 -50 -103 34 -70 96 13 23 52 25 70 4z"/>
<path d="M7368 1332 c-21 -4 -24 -18 -5 -24 18 -7 19 -118 1 -125 -28 -10 -13
-23 26 -23 22 0 40 5 40 10 0 6 -5 10 -10 10 -7 0 -10 24 -8 63 3 62 3 62 33
62 30 0 30 0 33 -62 2 -39 -1 -63 -8 -63 -5 0 -10 -4 -10 -10 0 -5 18 -10 40
-10 22 0 40 5 40 10 0 6 -7 10 -15 10 -12 0 -15 14 -15 64 0 86 -27 114 -81
85 -12 -6 -25 -7 -32 -1 -7 4 -20 7 -29 4z"/>
<path d="M7585 1315 c-27 -26 -34 -89 -15 -125 28 -51 118 -38 139 20 16 48
14 65 -15 99 -33 39 -74 41 -109 6z m83 -17 c7 -7 12 -30 12 -53 0 -23 -5 -46
-12 -53 -44 -44 -100 38 -68 99 12 21 50 25 68 7z"/>
<path d="M7758 1332 c-22 -4 -23 -18 -4 -25 11 -5 14 -20 10 -64 -2 -32 -9
-59 -14 -61 -25 -9 -6 -22 30 -22 22 0 40 5 40 10 0 6 -5 10 -10 10 -7 0 -10
24 -8 63 3 56 5 62 26 65 25 4 29 -4 35 -66 3 -28 0 -48 -9 -57 -21 -21 -17
-25 26 -25 39 0 54 13 27 23 -14 5 -16 95 -2 116 8 15 38 14 53 -1 18 -18 16
-118 -3 -118 -8 0 -15 -4 -15 -10 0 -5 18 -10 40 -10 22 0 40 5 40 10 0 6 -4
10 -10 10 -6 0 -10 27 -10 60 0 47 -4 64 -20 80 -23 23 -33 24 -62 9 -14 -8
-28 -7 -48 1 -21 9 -33 9 -50 0 -13 -7 -26 -8 -33 -2 -7 4 -20 7 -29 4z"/>
<path d="M8050 1330 c-22 -5 -23 -7 -8 -16 13 -7 18 -26 20 -79 3 -68 4 -70
31 -73 19 -2 27 1 27 12 0 9 -6 15 -12 14 -9 -2 -14 18 -16 67 -2 39 -6 73
-10 76 -4 3 -18 3 -32 -1z"/>
<path d="M8163 1333 c-28 -11 -12 -30 24 -29 47 1 59 -28 16 -39 -77 -19 -88
-105 -13 -105 14 0 31 5 38 12 9 9 12 9 12 0 0 -7 11 -12 25 -12 27 0 34 15
10 24 -11 4 -15 21 -15 65 0 41 -5 65 -16 75 -15 15 -55 20 -81 9z m51 -140
c-15 -11 -20 -11 -32 1 -19 19 -9 44 20 48 29 4 38 -30 12 -49z"/>
<path d="M1546 1289 c-73 -57 -75 -183 -4 -233 34 -24 119 -21 153 6 74 58 70
194 -6 233 -42 22 -111 19 -143 -6z m111 -49 c7 -14 13 -45 13 -70 0 -78 -50
-118 -84 -68 -22 31 -21 131 0 153 23 22 56 15 71 -15z"/>
<path d="M2103 1303 c-34 -4 -45 -26 -18 -37 12 -4 15 -24 15 -93 0 -112 13
-135 73 -131 48 3 61 27 25 43 -22 9 -23 17 -26 118 -3 117 3 109 -69 100z"/>
<path d="M2303 1290 c-40 -24 -63 -67 -63 -120 0 -82 49 -130 132 -130 67 0
88 9 88 36 0 22 -3 23 -45 17 -33 -4 -51 -1 -70 11 -40 26 -31 42 27 49 91 11
128 78 73 132 -31 32 -95 34 -142 5z m95 -46 c4 -29 -25 -56 -57 -52 -21 2
-25 8 -23 27 4 35 22 52 51 49 18 -2 27 -10 29 -24z"/>
<path d="M2533 1303 c-36 -5 -45 -28 -13 -36 18 -5 20 -14 20 -95 0 -71 -3
-91 -15 -96 -8 -3 -15 -12 -15 -21 0 -13 12 -15 72 -13 73 3 101 20 53 32 -23
6 -25 10 -25 67 0 78 11 99 54 99 33 0 45 16 46 58 0 19 -45 14 -74 -9 l-27
-21 -6 21 c-3 12 -13 20 -22 19 -9 0 -31 -3 -48 -5z"/>
<path d="M2763 1303 c-32 -4 -49 -33 -19 -33 21 0 26 -23 26 -110 0 -71 -2
-79 -21 -85 -42 -14 -12 -30 56 -30 68 0 98 16 56 30 -19 6 -21 14 -21 79 0
58 4 76 18 89 47 43 82 3 82 -95 0 -58 -3 -67 -21 -73 -40 -13 -12 -30 54 -33
56 -2 67 0 67 13 0 9 -7 18 -15 21 -12 5 -15 25 -15 96 0 81 -2 91 -25 113
-28 29 -76 33 -115 10 -32 -18 -40 -18 -40 0 0 15 -5 15 -67 8z"/>
<path d="M3128 1294 c-78 -42 -83 -200 -7 -239 36 -19 102 -19 139 0 41 21 60
63 60 131 0 50 -3 59 -34 90 -30 30 -40 34 -82 34 -27 -1 -61 -7 -76 -16z m86
-30 c34 -13 44 -135 14 -171 -6 -7 -21 -13 -35 -13 -32 0 -57 57 -50 117 7 63
29 83 71 67z"/>
<path d="M8315 1200 c-4 -6 -1 -18 6 -26 9 -11 9 -20 0 -41 -16 -35 -4 -44 20
-14 24 30 22 84 -3 89 -9 2 -19 -2 -23 -8z"/>
<path d="M7863 1072 c-24 -3 -31 -18 -13 -24 6 -2 13 -50 16 -108 5 -104 12
-123 43 -117 20 3 26 27 7 27 -20 0 -27 46 -22 143 2 42 1 79 -3 80 -3 2 -16
1 -28 -1z"/>
<path d="M5664 1059 c-8 -14 11 -33 25 -25 16 10 13 36 -3 36 -8 0 -18 -5 -22
-11z"/>
<path d="M6060 1056 c0 -8 4 -17 9 -20 11 -7 33 18 24 27 -12 12 -33 7 -33 -7z"/>
<path d="M4754 1026 c-30 -30 -34 -40 -34 -84 0 -84 61 -134 140 -117 17 4 30
13 30 21 0 11 -9 13 -39 8 -34 -5 -43 -3 -65 19 -25 25 -30 45 -26 97 2 31 17
49 47 61 27 10 53 2 53 -17 0 -8 5 -14 10 -14 6 0 10 14 10 30 0 29 -2 30 -46
30 -39 0 -51 -5 -80 -34z"/>
<path d="M7160 1050 c-8 -5 -7 -9 4 -13 25 -10 23 -182 -1 -196 -13 -8 5 -10
70 -11 l87 0 0 28 c-1 24 -2 25 -14 10 -8 -12 -27 -18 -50 -18 -35 0 -36 1
-36 40 0 25 5 40 13 41 6 1 25 2 41 3 51 2 43 26 -8 26 -46 0 -46 0 -46 35 0
33 2 35 35 35 22 0 37 -6 44 -17 9 -17 10 -17 16 0 15 38 -1 48 -74 46 -38 -1
-75 -5 -81 -9z"/>
<path d="M6533 1020 c-3 -11 -12 -20 -19 -20 -8 0 -14 -7 -14 -15 0 -8 6 -14
13 -12 8 1 14 -19 17 -65 3 -36 7 -69 10 -71 6 -6 29 -10 53 -8 25 2 21 19 -5
23 -20 3 -23 10 -26 60 -3 52 -1 57 20 60 28 4 27 22 -2 26 -12 2 -20 11 -20
23 0 25 -20 25 -27 -1z"/>
<path d="M4951 984 c-26 -22 -31 -33 -31 -70 0 -82 69 -120 126 -71 35 31 40
106 9 136 -35 32 -70 34 -104 5z m79 -23 c14 -27 13 -84 -2 -99 -18 -18 -56
-14 -68 7 -25 47 -5 111 35 111 14 0 29 -8 35 -19z"/>
<path d="M5176 995 c-14 -8 -26 -10 -26 -4 0 5 -11 9 -25 9 -25 0 -35 -15 -13
-22 17 -6 17 -109 0 -130 -14 -17 -12 -18 29 -18 27 0 39 4 31 9 -13 8 -23 81
-15 112 6 21 33 32 57 23 12 -5 16 -20 16 -63 0 -31 -5 -62 -12 -69 -9 -9 -2
-12 33 -12 35 1 40 3 27 11 -14 8 -18 24 -18 73 0 39 -5 67 -12 73 -25 19 -46
21 -72 8z"/>
<path d="M5375 1002 c-65 -13 -89 -108 -40 -157 31 -32 66 -32 102 -1 23 20
28 32 28 69 0 64 -36 100 -90 89z m45 -41 c5 -11 10 -35 10 -55 0 -42 -32 -71
-61 -55 -23 12 -35 73 -20 105 13 30 56 33 71 5z"/>
<path d="M5916 995 c-15 -8 -28 -10 -31 -4 -9 13 -69 11 -83 -3 -9 -9 -12 -9
-12 0 0 7 -11 12 -25 12 -27 0 -34 -15 -10 -24 23 -8 21 -121 -2 -135 -14 -8
-9 -10 27 -11 34 0 41 3 32 12 -7 7 -12 38 -12 69 0 49 3 59 20 64 34 11 50
-12 50 -71 0 -40 -4 -56 -17 -63 -14 -8 -9 -10 26 -11 36 0 42 2 32 14 -18 21
-10 117 11 129 29 19 48 -9 48 -69 0 -40 -4 -56 -17 -63 -14 -8 -9 -10 27 -11
34 0 41 3 32 12 -7 7 -12 39 -12 74 0 37 -5 65 -12 71 -25 19 -46 21 -72 8z"/>
<path d="M6684 1000 c-56 -22 -73 -112 -29 -155 48 -49 121 -16 132 61 4 33 1
45 -18 66 -28 31 -56 40 -85 28z m55 -34 c16 -19 21 -66 10 -93 -12 -34 -62
-32 -77 2 -15 32 -15 46 -2 79 11 29 49 36 69 12z"/>
<path d="M7426 995 c-14 -8 -26 -10 -26 -4 0 5 -11 9 -25 9 -27 0 -34 -15 -10
-24 23 -8 21 -121 -2 -135 -14 -8 -9 -10 27 -11 34 0 41 3 32 12 -7 7 -12 38
-12 69 0 49 3 59 20 64 34 11 50 -12 50 -71 0 -40 -4 -56 -17 -63 -14 -8 -9
-10 26 -11 36 0 42 2 32 14 -18 21 -10 117 11 129 29 19 48 -9 48 -69 0 -40
-4 -56 -17 -63 -14 -8 -7 -10 32 -10 39 0 46 2 33 10 -14 8 -18 24 -18 72 0
36 -5 68 -12 75 -14 14 -57 16 -78 2 -8 -5 -19 -5 -25 -1 -22 17 -44 19 -69 6z"/>
<path d="M8170 1002 c-68 -22 -81 -135 -20 -167 41 -21 58 -19 91 14 36 37 41
99 9 131 -11 11 -23 20 -27 21 -5 0 -15 2 -23 3 -8 2 -22 1 -30 -2z m54 -44
c35 -49 1 -132 -44 -108 -26 14 -30 23 -32 64 -2 62 45 89 76 44z"/>
<path d="M5520 980 c-61 -61 -12 -173 69 -155 40 8 43 37 4 29 -36 -6 -51 5
-62 43 -16 54 37 113 61 69 13 -24 28 -19 28 9 0 23 -4 25 -40 25 -26 0 -47
-7 -60 -20z"/>
<path d="M5646 991 c-3 -5 1 -11 9 -15 11 -4 15 -22 15 -75 0 -52 4 -70 15
-75 18 -6 45 2 45 15 0 5 -7 9 -15 9 -12 0 -15 15 -15 75 0 73 -1 75 -24 75
-14 0 -27 -4 -30 -9z"/>
<path d="M6040 990 c0 -5 5 -10 10 -10 6 0 10 -30 10 -69 0 -77 12 -97 51 -83
l23 9 -22 12 c-19 10 -22 20 -22 81 0 68 -1 70 -25 70 -14 0 -25 -4 -25 -10z"/>
<path d="M6161 974 c-23 -29 -28 -83 -10 -115 13 -26 55 -41 91 -34 40 9 38
36 -2 28 -22 -4 -36 0 -50 12 -27 25 -25 35 8 35 56 0 93 55 60 88 -22 22 -75
14 -97 -14z m74 -19 c0 -12 -10 -23 -27 -29 -35 -12 -44 -3 -30 30 15 31 57
31 57 -1z"/>
<path d="M6305 989 c-3 -4 2 -9 10 -13 23 -8 21 -122 -2 -135 -14 -8 -9 -10
27 -11 34 0 41 3 32 12 -7 7 -12 35 -12 63 0 53 12 75 42 75 24 0 38 -30 38
-81 0 -28 -6 -46 -17 -55 -16 -12 -13 -13 27 -14 34 0 41 3 32 12 -7 7 -12 36
-12 66 0 84 -8 91 -91 90 -38 -1 -72 -5 -74 -9z"/>
<path d="M6890 992 c0 -4 4 -12 9 -17 12 -13 61 -134 61 -151 0 -20 -29 -44
-45 -38 -9 4 -15 0 -15 -10 0 -22 43 -21 63 2 9 9 30 55 47 102 17 47 35 89
41 95 17 17 9 25 -26 25 -33 0 -48 -14 -23 -22 9 -3 9 -15 -1 -51 -8 -26 -17
-47 -20 -47 -12 0 -42 95 -31 98 23 8 8 22 -25 22 -19 0 -35 -4 -35 -8z"/>
<path d="M7650 991 c0 -5 7 -11 15 -15 12 -4 15 -25 15 -101 0 -78 -3 -95 -15
-95 -8 0 -15 -4 -15 -10 0 -5 21 -10 48 -10 41 1 45 2 30 14 -10 7 -18 23 -18
35 0 17 6 21 30 21 34 0 79 37 81 67 3 40 -4 69 -18 86 -18 20 -73 23 -91 5
-9 -9 -12 -9 -12 0 0 7 -11 12 -25 12 -14 0 -25 -4 -25 -9z m118 -27 c44 -30
16 -122 -35 -112 -33 6 -28 128 6 128 4 0 17 -7 29 -16z"/>
<path d="M7970 980 c-62 -62 -10 -172 75 -156 41 8 43 33 2 28 -31 -4 -67 13
-67 32 0 8 17 16 40 20 48 8 70 39 51 75 -15 28 -73 29 -101 1z m74 -15 c6
-18 -19 -45 -43 -45 -26 0 -31 9 -19 36 13 27 52 33 62 9z"/>
<path d="M1313 943 c-43 -4 -59 -25 -28 -37 9 -3 15 -18 15 -38 0 -32 -2 -33
-43 -35 -79 -5 -132 -71 -123 -155 6 -55 21 -83 53 -97 33 -15 59 -14 93 4 27
14 30 14 30 0 0 -16 36 -20 78 -9 24 7 31 34 8 34 -23 0 -26 24 -26 186 0 85
-3 153 -7 152 -5 -1 -27 -3 -50 -5z m-15 -228 c2 -57 0 -72 -14 -82 -24 -17
-31 -16 -54 7 -14 14 -20 33 -20 63 0 55 23 89 58 85 26 -3 27 -6 30 -73z"/>
<path d="M3207 934 c-13 -13 -7 -55 8 -60 8 -4 27 -3 41 0 20 5 25 12 22 34
-2 22 -9 28 -33 30 -17 2 -34 0 -38 -4z"/>
<path d="M1878 907 c-66 -30 -99 -85 -99 -162 0 -107 68 -175 174 -175 66 0
87 9 87 36 0 22 -3 23 -43 18 -88 -12 -144 49 -135 148 5 51 27 84 67 99 33
13 60 2 67 -27 4 -16 12 -24 23 -22 12 2 16 15 16 48 l0 45 -65 2 c-36 1 -77
-4 -92 -10z"/>
<path d="M1493 820 c-82 -49 -84 -186 -4 -233 32 -19 105 -22 145 -8 18 7 23
15 19 30 -4 18 -11 20 -49 14 -32 -4 -50 -1 -69 11 -40 26 -31 42 27 49 64 8
98 37 98 83 0 67 -96 98 -167 54z m95 -49 c4 -28 -20 -51 -54 -51 -31 0 -35
10 -18 48 11 28 18 33 41 30 21 -2 29 -9 31 -27z"/>
<path d="M2118 833 c-11 -3 -18 -14 -18 -29 0 -23 3 -24 35 -18 49 9 85 -2 85
-26 0 -14 -9 -21 -37 -26 -49 -9 -89 -29 -97 -49 -14 -37 -6 -84 16 -99 28
-20 77 -20 105 -1 18 13 22 13 33 0 7 -8 28 -15 47 -15 42 0 55 25 24 46 -19
13 -21 25 -21 99 0 78 -2 85 -26 104 -26 20 -97 27 -146 14z m100 -170 c-2
-32 -7 -39 -27 -41 -48 -7 -62 50 -17 68 40 17 47 12 44 -27z"/>
<path d="M2373 833 c-36 -5 -45 -28 -13 -36 18 -5 20 -14 20 -90 0 -76 -2 -88
-21 -101 -33 -23 -13 -36 56 -36 69 0 89 13 56 36 -18 13 -21 25 -21 83 0 53
4 72 18 84 47 43 82 6 82 -86 0 -57 -3 -68 -22 -81 -34 -24 -10 -37 62 -34 64
3 90 20 51 33 -19 6 -21 14 -21 96 0 82 -2 92 -25 114 -28 29 -75 33 -119 10
-35 -18 -36 -18 -36 0 0 15 -5 15 -67 8z"/>
<path d="M2718 833 c-11 -3 -18 -14 -18 -28 0 -23 2 -23 54 -18 48 5 55 3 66
-17 15 -27 14 -28 -44 -39 -61 -11 -96 -44 -96 -88 0 -61 60 -91 125 -61 19 9
28 9 37 0 18 -18 77 -15 85 4 4 10 0 20 -10 26 -13 7 -17 24 -17 77 0 84 -13
125 -46 140 -24 11 -101 13 -136 4z m109 -149 c3 -8 0 -27 -6 -40 -9 -20 -17
-25 -39 -22 -37 4 -38 47 -2 65 33 17 39 16 47 -3z"/>
<path d="M2980 833 c-37 -7 -45 -20 -21 -32 19 -11 21 -20 21 -98 0 -70 -3
-88 -17 -99 -31 -22 -2 -35 67 -32 64 3 90 20 50 33 -19 6 -21 13 -18 83 l3
77 35 3 c38 4 50 15 50 50 0 31 -43 30 -75 -2 -24 -24 -24 -24 -27 -2 -3 22
-22 27 -68 19z"/>
<path d="M3203 833 c-34 -4 -45 -26 -18 -37 12 -4 15 -24 15 -93 0 -113 13
-135 73 -131 34 2 42 7 42 23 0 11 -7 20 -15 20 -12 0 -16 21 -20 110 -6 122
-3 118 -77 108z"/>
<path d="M3383 830 c-15 -6 -20 -15 -16 -29 4 -18 11 -20 49 -14 74 10 108
-41 35 -53 -80 -13 -107 -42 -102 -109 5 -48 82 -72 128 -40 19 13 22 13 27 0
6 -18 81 -21 91 -4 4 6 -2 21 -14 33 -18 19 -21 35 -21 100 0 68 -3 80 -25
101 -20 21 -34 25 -77 24 -29 0 -63 -4 -75 -9z m105 -167 c-3 -32 -7 -38 -29
-41 -50 -6 -62 49 -15 68 40 17 47 12 44 -27z"/>
<path d="M3675 831 c-34 -14 -46 -37 -43 -78 3 -35 8 -41 56 -66 59 -32 70
-62 25 -73 -21 -6 -31 -2 -49 21 -25 32 -44 26 -44 -15 0 -36 23 -50 80 -50
54 0 94 22 110 61 19 44 -1 77 -64 107 -53 25 -60 55 -14 60 19 2 28 -2 33
-17 3 -12 13 -21 21 -21 11 0 14 10 12 38 l-3 37 -50 2 c-27 1 -59 -2 -70 -6z"/>
<path d="M4971 576 c-9 -10 -8 -16 4 -26 19 -16 41 1 32 24 -8 20 -21 20 -36
2z"/>
<path d="M5714 575 c-7 -18 3 -35 21 -35 18 0 26 25 12 39 -15 15 -27 14 -33
-4z"/>
<path d="M5886 565 c-9 -13 -16 -28 -16 -32 0 -4 -13 -16 -30 -25 -48 -27 -57
-115 -16 -156 23 -23 85 -17 114 11 36 36 35 102 -2 134 -15 13 -34 23 -42 23
-10 0 -4 10 15 26 17 14 31 30 31 35 0 19 -38 8 -54 -16z m24 -94 c23 -44 5
-111 -30 -111 -23 0 -40 28 -40 65 0 37 17 65 40 65 11 0 24 -9 30 -19z"/>
<path d="M7398 583 c-19 -5 -25 -23 -8 -23 6 0 10 -38 10 -94 0 -118 3 -126
46 -126 36 0 44 13 18 28 -14 8 -17 28 -18 113 -1 109 -4 114 -48 102z"/>
<path d="M7670 580 c-12 -8 -12 -10 3 -16 9 -3 17 -16 17 -28 0 -17 -7 -22
-32 -24 -48 -4 -83 -42 -83 -91 0 -62 23 -79 106 -79 38 0 71 4 75 9 3 5 -2 9
-10 9 -14 0 -16 18 -16 115 0 113 0 115 -22 115 -13 0 -30 -4 -38 -10z m8
-102 c13 -13 16 -66 6 -92 -7 -19 -35 -21 -52 -4 -17 17 -15 74 4 92 19 19 26
20 42 4z"/>
<path d="M4716 562 c-3 -5 1 -12 9 -16 22 -8 22 -186 0 -186 -8 0 -15 -4 -15
-10 0 -15 116 -12 156 5 65 27 84 122 36 176 -26 29 -35 32 -104 37 -46 3 -78
0 -82 -6z m143 -48 c41 -52 12 -144 -45 -144 -13 0 -24 5 -25 10 0 6 0 39 0
75 0 36 0 70 0 75 2 21 50 9 70 -16z"/>
<path d="M6340 558 c-37 -19 -63 -79 -55 -127 8 -47 34 -77 78 -89 33 -9 96
-5 98 7 1 3 2 21 4 40 1 19 7 37 13 39 29 9 8 22 -38 22 -27 0 -50 -4 -50 -10
0 -5 7 -10 16 -10 11 0 14 -8 12 -32 -4 -43 -22 -46 -59 -8 -28 27 -31 36 -26
71 8 60 32 81 87 77 35 -2 45 0 45 12 0 20 -90 25 -125 8z"/>
<path d="M4968 512 c-29 -3 -40 -22 -13 -22 11 0 15 -17 17 -72 l3 -73 33 -3
c24 -2 32 1 32 12 0 9 -7 16 -15 16 -12 0 -15 14 -15 69 0 39 -3 71 -7 73 -5
2 -20 2 -35 0z"/>
<path d="M5073 512 c-24 -4 -31 -18 -12 -24 17 -6 20 -118 3 -125 -29 -11 -13
-23 31 -23 40 0 61 13 35 22 -14 4 -20 67 -9 95 6 16 17 23 34 23 18 0 25 5
25 20 0 24 -32 27 -50 5 -10 -12 -15 -13 -24 -2 -6 7 -21 11 -33 9z"/>
<path d="M5225 495 c-14 -13 -25 -30 -26 -37 0 -7 -2 -20 -4 -29 -6 -33 23
-78 57 -87 40 -10 83 -1 83 19 0 10 -10 13 -33 11 -32 -3 -62 11 -62 29 0 5 9
9 20 9 63 0 102 58 60 92 -31 25 -66 23 -95 -7z m70 -30 c0 -14 -8 -21 -27
-23 -22 -3 -28 1 -28 16 0 25 10 33 35 30 12 -2 20 -10 20 -23z"/>
<path d="M5401 495 c-25 -22 -31 -34 -31 -65 0 -21 3 -46 6 -55 9 -23 58 -42
94 -37 43 6 38 30 -7 34 -33 3 -39 7 -47 36 -6 22 -5 41 2 57 13 28 47 34 56
10 9 -26 27 -16 24 13 -4 39 -54 43 -97 7z"/>
<path d="M5560 491 c-59 -59 -26 -153 54 -153 39 0 63 13 53 29 -4 6 -19 8
-35 5 -34 -5 -53 15 -54 57 -2 49 44 84 58 46 10 -25 26 -17 22 13 -2 22 -8
28 -36 30 -25 3 -39 -3 -62 -27z"/>
<path d="M5713 513 c-23 -4 -33 -23 -13 -23 6 0 10 -26 10 -59 0 -33 3 -66 6
-75 8 -21 64 -22 64 -1 0 8 -7 15 -15 15 -12 0 -15 15 -15 75 0 41 -3 74 -7
74 -5 -1 -18 -4 -30 -6z"/>
<path d="M6071 511 c-7 -5 -31 -6 -52 -4 -39 6 -55 -9 -24 -21 22 -8 20 -103
-2 -128 -15 -17 -14 -18 30 -18 26 0 47 5 47 10 0 6 -4 10 -10 10 -14 0 -12
104 2 118 16 16 23 15 42 -4 21 -21 21 -92 -1 -116 -15 -17 -14 -18 30 -18 26
0 47 5 47 10 0 6 -4 10 -10 10 -6 0 -10 27 -10 60 0 47 -4 64 -20 80 -21 21
-46 25 -69 11z"/>
<path d="M6547 500 c-55 -43 -42 -135 22 -156 43 -14 81 -7 81 15 0 14 -7 17
-30 13 -29 -4 -60 11 -60 29 0 5 11 9 24 9 28 0 76 35 76 56 0 22 -38 54 -64
54 -13 0 -35 -9 -49 -20z m66 -24 c7 -19 -17 -38 -41 -34 -16 2 -18 7 -11 26
9 25 44 30 52 8z"/>
<path d="M6708 512 c-30 -4 -37 -16 -13 -26 11 -4 15 -21 15 -61 0 -40 -4 -57
-15 -61 -30 -12 -14 -24 30 -24 25 0 45 5 45 10 0 6 -4 10 -10 10 -17 0 -12
106 6 121 29 23 49 -1 52 -65 2 -45 0 -56 -13 -56 -8 0 -15 -4 -15 -10 0 -5
20 -10 45 -10 25 0 45 5 45 10 0 6 -4 10 -10 10 -6 0 -10 27 -10 60 0 84 -36
119 -92 89 -11 -6 -23 -7 -27 -3 -3 5 -18 8 -33 6z"/>
<path d="M6943 510 c-12 -5 -26 -18 -32 -29 -15 -27 -13 -92 3 -114 17 -22 63
-35 95 -27 38 9 38 30 1 30 -33 0 -70 15 -70 29 0 5 17 12 38 16 46 9 62 21
62 51 0 45 -44 65 -97 44z m52 -45 c0 -14 -8 -21 -27 -23 -30 -4 -38 14 -16
36 18 18 43 10 43 -13z"/>
<path d="M7093 512 c-22 -3 -33 -22 -13 -22 6 0 10 -28 10 -65 0 -37 -4 -65
-10 -65 -5 0 -10 -4 -10 -10 0 -5 20 -10 45 -10 44 0 60 12 30 24 -10 4 -15
19 -15 49 0 46 11 62 44 68 11 2 21 10 24 16 6 20 -28 27 -45 10 -13 -13 -19
-14 -27 -4 -6 7 -21 11 -33 9z"/>
<path d="M7243 513 c-22 -8 -15 -35 7 -28 26 8 60 -3 60 -20 0 -7 -16 -16 -35
-19 -46 -9 -69 -43 -56 -80 10 -24 29 -33 56 -26 6 2 29 2 53 2 31 -1 42 2 42
13 0 8 -4 15 -10 15 -6 0 -10 26 -10 59 0 51 -3 62 -22 75 -22 16 -60 20 -85
9z m65 -115 c-4 -30 -48 -39 -48 -10 0 24 8 32 32 32 14 0 19 -6 16 -22z"/>
<path d="M7815 508 c-32 -18 -44 -40 -45 -80 0 -52 34 -90 82 -90 20 0 41 3
47 7 22 13 10 25 -23 25 -19 0 -42 8 -52 17 -16 17 -15 18 21 25 50 11 65 24
65 59 0 43 -50 63 -95 37z m53 -40 c-2 -17 -11 -24 -30 -26 -19 -2 -28 1 -28
10 0 20 21 38 43 38 13 0 18 -6 15 -22z"/>
<path d="M6114 233 c-10 -16 -17 -33 -16 -39 1 -7 -9 -15 -23 -18 -33 -8 -59
-65 -50 -107 7 -32 48 -69 76 -69 31 0 66 21 78 47 30 66 -5 143 -61 134 -16
-2 -7 11 22 36 29 24 32 43 6 43 -8 0 -22 -12 -32 -27z m25 -107 c26 -55 -14
-119 -54 -86 -18 15 -20 91 -3 108 19 19 41 10 57 -22z"/>
<path d="M7370 230 c-12 -16 -18 -34 -15 -40 3 -5 -3 -10 -14 -10 -30 0 -61
-47 -61 -92 0 -95 112 -121 156 -36 27 53 5 112 -51 132 -19 7 -19 8 8 28 15
11 27 26 27 34 0 24 -28 15 -50 -16z m20 -89 c15 -29 12 -87 -5 -101 -22 -19
-48 -8 -57 25 -17 65 34 128 62 76z"/>
<path d="M5940 230 c0 -13 7 -20 20 -20 13 0 20 7 20 20 0 13 -7 20 -20 20
-13 0 -20 -7 -20 -20z"/>
<path d="M7794 239 c-9 -15 12 -33 30 -26 9 4 16 13 16 22 0 17 -35 21 -46 4z"/>
<path d="M4725 230 c-18 -7 -19 -8 -2 -15 14 -6 17 -21 17 -92 0 -70 -3 -88
-17 -99 -16 -12 -10 -13 40 -14 55 0 77 12 39 22 -12 4 -18 14 -17 33 0 25 4
29 35 33 54 5 80 27 80 66 0 19 -8 40 -18 49 -20 19 -124 29 -157 17z m116
-39 c22 -18 22 -20 7 -43 -9 -14 -27 -27 -40 -30 -23 -4 -26 6 -19 80 2 18 25
15 52 -7z"/>
<path d="M6515 232 c-10 -10 -5 -22 10 -22 12 0 15 -16 15 -85 0 -67 -3 -87
-15 -91 -37 -14 -8 -24 70 -24 84 0 85 0 85 25 0 25 -15 35 -22 13 -5 -13 -36
-20 -60 -12 -13 4 -18 16 -18 39 0 33 2 34 42 37 59 4 63 28 4 28 -44 0 -46 1
-46 30 0 28 3 30 34 30 19 0 38 -4 41 -10 12 -20 26 -9 23 18 -3 27 -4 27 -81
28 -42 0 -79 -2 -82 -4z"/>
<path d="M5119 176 c-52 -26 -64 -122 -19 -158 78 -63 186 60 119 135 -28 31
-67 40 -100 23z m67 -44 c6 -12 8 -39 5 -60 -5 -29 -11 -38 -30 -40 -30 -5
-41 12 -41 64 0 63 41 86 66 36z"/>
<path d="M5633 182 c-34 -5 -63 -49 -63 -94 0 -78 78 -114 137 -64 23 20 28
32 28 69 0 67 -37 99 -102 89z m47 -41 c14 -27 13 -84 -2 -99 -21 -21 -45 -13
-58 17 -25 61 30 137 60 82z"/>
<path d="M6784 183 c-66 -13 -90 -115 -39 -161 37 -31 105 -28 105 5 0 11 -7
14 -26 10 -34 -6 -64 23 -64 62 0 45 43 80 56 46 10 -25 34 -17 34 10 0 14 -4
25 -9 25 -5 0 -15 2 -23 4 -7 2 -23 1 -34 -1z"/>
<path d="M6934 180 c-56 -22 -73 -112 -29 -155 31 -32 75 -32 112 -1 24 20 28
32 27 71 -1 67 -53 107 -110 85z m56 -39 c15 -29 12 -87 -5 -101 -39 -32 -79
33 -56 93 12 32 45 36 61 8z"/>
<path d="M7159 179 c-8 -4 -33 -5 -56 -2 -42 6 -61 -8 -28 -21 11 -4 15 -21
15 -66 0 -33 -4 -60 -10 -60 -5 0 -10 -4 -10 -10 0 -5 21 -10 48 -10 41 1 45
2 30 14 -13 9 -18 27 -18 57 0 55 11 72 41 67 22 -3 24 -9 27 -60 2 -36 -1
-58 -8 -58 -5 0 -10 -4 -10 -10 0 -5 18 -10 40 -10 22 0 40 5 40 10 0 6 -4 10
-10 10 -6 0 -10 26 -10 58 0 32 -6 65 -12 74 -16 19 -51 28 -69 17z"/>
<path d="M7655 174 c-17 -9 -32 -11 -39 -5 -13 11 -144 12 -151 1 -3 -4 2 -10
10 -14 23 -8 21 -114 -2 -132 -16 -12 -11 -13 37 -13 48 0 53 1 38 13 -18 13
-25 77 -12 110 8 21 41 20 52 -1 13 -26 9 -88 -7 -107 -12 -14 -9 -16 33 -16
46 0 46 0 33 23 -14 22 -16 70 -4 101 8 21 43 21 51 0 13 -33 6 -97 -11 -110
-16 -12 -12 -13 30 -14 26 0 47 5 47 10 0 6 -4 10 -10 10 -6 0 -10 26 -10 58
0 83 -31 114 -85 86z"/>
<path d="M8083 183 c-41 -8 -27 -33 17 -33 32 0 40 -4 40 -18 0 -12 -9 -18
-27 -20 -61 -5 -88 -81 -37 -104 20 -9 30 -9 45 0 14 9 25 9 39 2 19 -10 50
-4 50 10 0 4 -7 10 -15 14 -11 4 -15 21 -15 64 0 36 -5 64 -12 69 -17 13 -58
21 -85 16z m57 -117 c0 -25 -15 -37 -37 -28 -30 10 -11 49 25 51 6 1 12 -10
12 -23z"/>
<path d="M4926 171 c-3 -5 1 -11 9 -15 11 -4 15 -21 15 -66 0 -33 -4 -60 -10
-60 -5 0 -10 -4 -10 -10 0 -5 20 -10 45 -10 25 0 45 5 45 10 0 6 -7 10 -15 10
-11 0 -15 12 -15 48 0 51 13 74 37 65 14 -5 32 12 33 30 0 11 -45 8 -57 -4 -8
-8 -13 -8 -17 0 -9 13 -53 15 -60 2z"/>
<path d="M5255 170 c-3 -4 2 -10 10 -14 11 -4 15 -21 15 -66 0 -33 -4 -60 -10
-60 -5 0 -10 -4 -10 -10 0 -5 18 -10 40 -10 22 0 40 5 40 10 0 6 -4 10 -10 10
-11 0 -14 78 -4 104 9 22 54 21 55 -1 3 -57 -1 -96 -11 -108 -11 -13 -5 -15
34 -15 46 0 46 0 32 23 -15 25 -15 92 2 109 5 5 18 8 28 6 28 -5 33 -104 7
-124 -16 -12 -12 -13 37 -13 48 0 53 1 38 13 -14 10 -18 28 -18 73 0 32 -5 64
-12 71 -15 15 -70 16 -86 0 -8 -8 -15 -8 -24 -1 -15 13 -145 15 -153 3z"/>
<path d="M5781 154 c-25 -32 -28 -90 -6 -121 19 -27 75 -39 104 -23 29 15 18
29 -21 28 -54 -2 -78 62 -38 102 24 24 36 25 44 5 9 -24 26 -17 26 10 0 23 -4
25 -44 25 -36 0 -48 -5 -65 -26z"/>
<path d="M5916 171 c-3 -5 1 -11 9 -15 11 -4 15 -22 15 -69 0 -65 11 -87 41
-87 25 0 35 21 15 32 -12 7 -16 24 -16 78 l0 70 -29 0 c-17 0 -32 -4 -35 -9z"/>
<path d="M6210 171 c0 -5 5 -11 12 -13 16 -6 15 -113 -2 -133 -11 -13 -6 -15
35 -15 37 0 45 3 37 13 -15 18 -22 76 -12 103 10 26 47 33 55 12 15 -45 14
-92 -1 -110 -16 -17 -15 -18 29 -18 l46 0 -14 27 c-8 14 -12 42 -9 61 6 50
-17 82 -59 82 -18 0 -38 -5 -45 -12 -9 -9 -12 -9 -12 0 0 7 -13 12 -30 12 -16
0 -30 -4 -30 -9z"/>
<path d="M7770 171 c0 -5 6 -11 14 -14 10 -4 13 -21 11 -58 -1 -29 0 -61 2
-70 6 -21 33 -32 57 -23 20 8 21 24 1 24 -12 0 -15 15 -15 75 l0 75 -35 0
c-19 0 -35 -4 -35 -9z"/>
<path d="M7913 165 c-28 -20 -39 -76 -23 -114 15 -36 62 -58 98 -45 40 14 39
34 -1 32 -43 -1 -53 5 -60 39 -10 54 33 104 59 69 16 -23 24 -20 24 9 0 22 -4
25 -38 25 -21 0 -47 -7 -59 -15z"/>
</g>
</svg>
