<?xml version="1.0" standalone="no"?>
<!DOCTYPE svg PUBLIC "-//W3C//DTD SVG 20010904//EN"
 "http://www.w3.org/TR/2001/REC-SVG-20010904/DTD/svg10.dtd">
<svg version="1.0" xmlns="http://www.w3.org/2000/svg"
 width="267.000000pt" height="198.000000pt" viewBox="0 0 267.000000 198.000000"
 preserveAspectRatio="xMidYMid meet">

<g transform="translate(0.000000,198.000000) scale(0.100000,-0.100000)"
fill="#000000" stroke="none">
<path d="M732 1780 c-213 -18 -316 -51 -467 -149 -46 -30 -101 -88 -132 -139
-26 -42 -48 -136 -38 -160 4 -9 7 -38 6 -64 -2 -33 3 -53 13 -64 9 -8 14 -19
11 -24 -6 -10 61 -140 79 -153 7 -6 4 -7 -6 -3 -24 7 -31 -9 -17 -36 22 -40
111 -128 131 -128 10 0 29 -11 42 -25 13 -14 32 -25 42 -25 11 0 36 -12 57
-26 35 -23 40 -24 50 -10 10 13 18 14 47 6 19 -6 67 -12 105 -15 77 -5 252
-32 268 -42 6 -4 7 -1 2 7 -5 8 -2 11 11 7 53 -15 83 -17 89 -7 4 7 19 9 37 5
18 -4 28 -3 25 2 -21 33 226 -31 273 -71 8 -7 30 -18 49 -25 157 -52 -217 152
-389 214 -91 32 -170 63 -245 96 -11 5 -49 20 -85 33 -36 14 -84 34 -107 45
-23 12 -47 21 -52 21 -20 0 -127 69 -160 103 -28 30 -32 40 -26 66 12 54 162
130 231 117 28 -6 41 -3 56 11 15 14 34 17 76 16 37 -2 64 2 80 13 18 12 37
14 81 9 44 -5 60 -3 69 8 10 11 21 13 50 6 20 -5 40 -9 44 -9 3 0 6 21 6 46 0
26 5 51 10 56 7 7 3 17 -11 31 -20 20 -20 22 -4 25 11 2 17 11 15 20 -2 10 6
25 17 34 20 17 20 17 -2 18 -30 0 -30 18 -1 22 13 2 24 12 28 26 3 13 7 22 10
21 3 -1 15 3 28 10 16 8 21 18 17 31 -4 12 0 22 11 28 15 8 13 11 -12 15 -56
11 -310 15 -412 7z m-242 -88 c-8 -4 -28 -16 -43 -26 -33 -23 -132 -31 -101
-9 21 15 38 17 29 3 -3 -5 -1 -10 5 -10 6 0 13 7 16 15 4 8 16 15 28 15 11 0
28 5 36 10 8 5 22 9 30 9 13 0 13 -1 0 -7z m-35 -47 c-22 -13 -47 -24 -55 -24
-16 0 68 48 85 48 6 1 -8 -10 -30 -24z m-175 -117 c0 -19 -16 -5 -17 14 -2 18
0 20 7 8 5 -8 10 -18 10 -22z m467 6 c-3 -3 -12 -4 -19 -1 -8 3 -5 6 6 6 11 1
17 -2 13 -5z"/>
<path d="M1800 1640 c0 -5 7 -13 17 -18 9 -5 17 -22 19 -37 5 -43 12 -55 34
-55 11 0 23 -6 26 -14 3 -8 25 -19 50 -26 47 -13 68 -30 37 -30 -10 0 -33 4
-51 9 -27 8 -32 7 -34 -7 -5 -60 -4 -78 6 -85 6 -5 2 -7 -12 -4 -17 4 -30 -5
-57 -36 -22 -26 -33 -47 -29 -57 3 -8 7 -21 8 -29 2 -9 43 -28 102 -48 139
-47 272 -111 280 -136 5 -17 -10 -36 -71 -96 l-78 -75 59 -54 c86 -79 170
-117 260 -117 84 0 123 22 172 94 42 65 54 109 55 214 2 162 -18 251 -68 303
-21 22 -149 94 -166 94 -6 0 -36 15 -67 34 -63 39 -275 125 -396 162 -89 27
-96 28 -96 14z m147 -106 c-3 -3 -12 -4 -19 -1 -8 3 -5 6 6 6 11 1 17 -2 13
-5z m40 -10 c-3 -3 -12 -4 -19 -1 -8 3 -5 6 6 6 11 1 17 -2 13 -5z m40 -10
c-3 -3 -12 -4 -19 -1 -8 3 -5 6 6 6 11 1 17 -2 13 -5z m93 -163 c19 -5 21 -8
10 -13 -9 -3 -29 0 -45 7 -22 10 -25 13 -10 13 11 0 31 -3 45 -7z m-175 -32
c3 -4 -15 -2 -40 4 -25 6 -45 14 -45 18 0 7 74 -12 85 -22z"/>
<path d="M1910 566 c-13 -63 -10 -186 5 -186 6 -1 12 14 15 32 l5 33 21 -28
c34 -42 37 -32 8 24 l-25 51 20 22 c27 29 26 56 -3 84 -13 12 -26 22 -29 22
-3 0 -11 -24 -17 -54z m60 -5 c0 -5 -7 -14 -15 -21 -12 -10 -15 -10 -15 2 0 8
3 18 7 21 9 10 23 9 23 -2z"/>
<path d="M603 598 c-4 -7 -9 -62 -11 -122 -4 -88 -2 -108 9 -104 8 3 15 22 17
44 3 35 15 53 35 54 4 0 7 -19 8 -42 l1 -43 17 49 c18 53 22 138 6 146 -5 3
-11 -2 -12 -10 -10 -76 -15 -90 -32 -90 -17 0 -18 7 -13 65 5 63 -5 84 -25 53z"/>
<path d="M1696 595 c-3 -8 -12 -15 -21 -15 -8 0 -15 -4 -15 -10 0 -5 6 -10 14
-10 12 0 15 -17 13 -84 -1 -47 1 -88 5 -91 18 -18 28 13 28 85 0 70 2 81 22
94 12 9 26 16 30 16 5 0 8 -37 8 -83 0 -87 13 -123 40 -112 28 10 40 44 45
123 l5 77 -14 -78 c-22 -119 -34 -120 -43 -3 l-6 76 -39 6 c-21 4 -41 11 -44
15 -8 14 -21 11 -28 -6z"/>
<path d="M770 581 c-13 -25 -13 -41 0 -21 7 11 10 4 10 -27 0 -50 -20 -70 -21
-21 l-1 33 -11 -35 c-6 -19 -13 -37 -16 -40 -9 -7 -7 -80 1 -80 4 0 11 18 14
40 9 57 32 52 36 -7 4 -64 28 -71 28 -7 0 33 5 51 18 60 16 13 16 13 0 14 -14
0 -18 9 -18 39 0 67 -19 91 -40 52z"/>
<path d="M856 589 c-8 -23 -14 -196 -7 -207 16 -25 91 24 91 61 0 10 -9 21
-20 24 -19 5 -29 23 -12 23 12 0 40 54 35 68 -3 6 -14 12 -26 12 -11 0 -29 7
-39 16 -14 14 -18 14 -22 3z m62 -46 c-2 -10 -11 -19 -21 -21 -16 -3 -17 -1
-7 17 13 25 33 28 28 4z m-14 -79 c22 -9 20 -27 -5 -42 -26 -17 -29 -14 -22
21 6 30 5 29 27 21z"/>
<path d="M1417 593 c-4 -3 -7 -51 -7 -106 0 -112 10 -119 25 -19 l11 67 18
-55 c10 -30 23 -60 27 -66 5 -6 5 -14 1 -19 -4 -4 0 -6 8 -3 26 8 43 179 19
193 -16 11 -19 3 -20 -63 -2 -72 -14 -81 -24 -19 -12 69 -38 110 -58 90z"/>
<path d="M1604 588 c-4 -6 -6 -34 -5 -60 2 -31 -2 -48 -9 -48 -8 0 -10 14 -6
43 l5 42 -15 -45 c-19 -57 -30 -139 -16 -125 6 6 12 23 14 39 5 48 25 42 30
-9 3 -25 9 -49 12 -53 12 -11 26 21 26 60 0 20 5 40 10 43 6 4 4 12 -5 21 -8
9 -15 33 -15 54 0 40 -13 59 -26 38z"/>
<path d="M2057 582 c-18 -21 -36 -80 -44 -147 -6 -54 5 -57 16 -4 10 48 31 49
31 2 0 -73 33 -87 34 -14 1 21 7 45 15 54 12 15 11 17 -3 17 -13 0 -16 10 -16
49 0 56 -10 69 -33 43z m-1 -100 c-13 -13 -17 9 -10 50 l9 43 3 -44 c2 -23 1
-46 -2 -49z"/>
<path d="M496 549 c-24 -58 -26 -134 -4 -155 16 -16 18 -16 42 0 18 11 26 25
25 44 l-1 27 -14 -32 c-18 -42 -30 -42 -38 0 -8 41 15 122 34 122 23 0 17 30
-6 33 -17 2 -25 -6 -38 -39z"/>
<path d="M986 550 c-20 -51 -21 -143 -2 -159 20 -17 65 25 75 71 7 28 4 46
-13 82 -11 25 -26 46 -32 46 -7 0 -19 -18 -28 -40z m54 -52 c0 -47 -17 -91
-31 -82 -12 7 -6 115 7 136 10 17 24 -13 24 -54z"/>
<path d="M1106 550 c-18 -46 -21 -122 -5 -151 7 -15 16 -18 32 -13 28 8 37 22
36 54 0 23 -1 22 -15 -9 -15 -36 -28 -33 -37 9 -7 36 15 115 33 115 8 0 16 8
18 18 3 12 -3 17 -21 17 -20 0 -28 -8 -41 -40z"/>
<path d="M1233 578 c-18 -23 -33 -80 -33 -124 0 -81 54 -92 85 -17 20 48 19
68 -7 114 -23 42 -30 46 -45 27z m35 -97 c-4 -61 -12 -81 -25 -67 -10 9 -9 82
1 120 12 50 29 14 24 -53z"/>
<path d="M342 260 c0 -14 2 -19 5 -12 2 6 2 18 0 25 -3 6 -5 1 -5 -13z"/>
<path d="M1532 255 c0 -16 2 -22 5 -12 2 9 2 23 0 30 -3 6 -5 -1 -5 -18z"/>
</g>
</svg>
