<?xml version="1.0" standalone="no"?>
<!DOCTYPE svg PUBLIC "-//W3C//DTD SVG 20010904//EN"
 "http://www.w3.org/TR/2001/REC-SVG-20010904/DTD/svg10.dtd">
<svg version="1.0" xmlns="http://www.w3.org/2000/svg"
 width="7572.000000pt" height="1101.000000pt" viewBox="0 0 7572.000000 1101.000000"
 preserveAspectRatio="xMidYMid meet">

<g transform="translate(0.000000,1101.000000) scale(0.100000,-0.100000)"
fill="#000000" stroke="none">
<path d="M4370 10213 c-518 -40 -1028 -226 -1430 -521 l-85 -63 -3 202 c-1
129 -6 207 -13 216 -9 11 -177 13 -920 13 -888 0 -909 0 -919 -19 -7 -14 -10
-1468 -10 -4620 0 -4168 1 -4601 16 -4615 14 -14 110 -16 914 -16 804 0 900 2
914 16 14 14 16 174 16 1615 0 879 2 1599 4 1599 3 0 39 -25 81 -55 187 -134
472 -284 692 -364 492 -179 1088 -220 1622 -110 699 142 1295 536 1757 1161
379 512 604 1131 664 1823 15 177 12 567 -5 751 -82 862 -409 1578 -985 2154
-491 491 -1079 767 -1770 829 -106 10 -434 12 -540 4z m148 -1849 c416 -61
788 -325 1006 -712 96 -170 157 -347 192 -557 21 -122 23 -422 5 -540 -55
-355 -191 -622 -449 -880 -261 -263 -540 -386 -907 -402 -417 -18 -816 156
-1101 479 -126 143 -249 359 -309 542 -86 266 -102 594 -44 881 127 627 595
1098 1184 1189 123 19 296 19 423 0z"/>
<path d="M11535 10213 c-757 -65 -1280 -311 -1683 -788 l-42 -50 0 327 c0 283
-2 329 -16 342 -14 14 -111 16 -925 16 -608 0 -917 -3 -930 -10 -19 -11 -19
-58 -19 -3298 0 -2544 3 -3291 12 -3300 15 -15 1834 -17 1858 -2 13 8 16 233
20 1887 l6 1878 22 97 c63 274 175 482 361 669 230 231 493 352 822 378 251
20 477 -18 707 -120 l54 -24 19 24 c19 23 19 50 17 993 -3 848 -5 970 -18 978
-14 9 -176 11 -265 3z"/>
<path d="M42128 10209 c-605 -41 -1152 -250 -1620 -621 -138 -108 -422 -396
-532 -538 -334 -431 -552 -909 -660 -1450 -100 -498 -106 -1107 -15 -1620 125
-707 452 -1344 944 -1835 249 -249 481 -417 780 -565 324 -160 653 -253 1029
-289 139 -14 473 -14 607 -1 541 54 1045 245 1452 551 l77 58 0 -214 c0 -181
2 -216 16 -229 14 -14 111 -16 925 -16 608 0 917 3 930 10 19 11 19 58 19
3293 0 2540 -3 3286 -12 3295 -9 9 -230 12 -935 12 -902 0 -923 0 -933 -19 -6
-12 -10 -101 -10 -219 l0 -200 -138 91 c-579 386 -1217 554 -1924 506z m822
-1895 c405 -68 791 -351 1019 -749 218 -380 259 -914 107 -1370 -75 -223 -197
-424 -363 -596 -209 -217 -452 -350 -753 -415 -120 -26 -420 -26 -540 -1 -298
64 -522 186 -736 401 -260 262 -404 570 -454 966 -67 542 143 1109 532 1437
344 290 745 400 1188 327z"/>
<path d="M35645 10063 c-38 -2 -138 -10 -221 -18 -775 -77 -1442 -379 -1978
-895 -508 -489 -816 -1062 -935 -1740 -89 -502 -70 -1069 50 -1545 242 -957
950 -1773 1873 -2160 764 -320 1731 -350 2541 -80 882 294 1589 942 1965 1798
66 151 72 182 38 198 -55 24 -1770 517 -1783 512 -8 -3 -37 -48 -65 -102 -203
-386 -552 -660 -966 -757 -160 -38 -421 -45 -589 -16 -612 105 -1060 544
-1197 1172 -20 93 -22 133 -22 340 -1 223 1 241 28 355 78 335 255 618 520
831 278 224 603 327 986 311 386 -17 700 -154 970 -426 125 -126 189 -212 270
-364 29 -54 59 -101 66 -104 15 -6 1772 503 1792 519 22 19 13 56 -48 195
-274 625 -732 1146 -1311 1494 -473 284 -1006 443 -1599 479 -157 9 -225 10
-385 3z"/>
<path d="M25520 10045 c-10 -11 -10 -22 -3 -38 6 -13 524 -728 1152 -1591
l1141 -1567 -132 -182 c-73 -100 -622 -856 -1220 -1680 -598 -823 -1088 -1505
-1088 -1515 0 -10 5 -23 12 -30 9 -9 272 -12 1123 -12 l1112 0 20 22 c37 42
390 554 1353 1963 526 770 959 1405 963 1411 3 6 -492 735 -1101 1620 l-1108
1609 -1106 3 c-983 2 -1107 0 -1118 -13z"/>
<path d="M14910 10044 c-19 -2 -84 -9 -145 -14 -715 -68 -1360 -354 -1892
-838 -623 -568 -966 -1265 -1044 -2122 -15 -166 -6 -657 15 -805 84 -589 272
-1058 602 -1502 479 -644 1149 -1074 1938 -1243 530 -113 1166 -105 1686 21
607 148 1133 451 1567 902 515 537 812 1174 895 1922 17 153 17 613 0 760 -92
799 -405 1439 -973 1990 -534 518 -1129 805 -1873 906 -115 15 -221 21 -446
24 -162 2 -311 1 -330 -1z m582 -1814 c199 -42 378 -121 530 -235 112 -84 309
-289 384 -400 115 -169 194 -359 231 -555 25 -136 25 -448 -1 -585 -92 -494
-437 -926 -891 -1116 -308 -129 -715 -142 -1042 -34 -369 122 -670 392 -848
760 -105 217 -146 407 -146 680 0 439 138 786 431 1085 233 238 488 367 820
416 134 19 404 11 532 -16z"/>
<path d="M21795 10039 c-635 -52 -1224 -273 -1708 -642 -124 -93 -302 -253
-412 -369 -506 -532 -781 -1120 -871 -1868 -25 -201 -25 -638 -1 -840 91 -754
387 -1370 912 -1895 588 -589 1305 -914 2180 -986 176 -15 647 -6 803 15 276
37 493 86 732 166 686 229 1275 676 1663 1262 107 162 137 219 127 243 -7 18
-108 44 -851 213 -464 106 -853 192 -863 192 -10 0 -70 -50 -135 -113 -264
-256 -543 -385 -923 -426 -683 -75 -1310 229 -1617 784 -45 80 -105 217 -125
282 l-7 23 2340 2 c1751 2 2343 6 2352 15 19 19 57 276 70 465 19 292 -11 668
-78 968 -160 722 -555 1336 -1177 1832 -432 346 -964 571 -1536 653 -243 34
-622 45 -875 24z m615 -1564 c217 -41 444 -137 620 -262 121 -87 276 -242 363
-363 60 -85 196 -339 212 -397 l6 -23 -1450 0 c-798 0 -1451 2 -1451 5 0 2 13
38 30 80 213 536 651 892 1195 971 113 17 359 11 475 -11z"/>
<path d="M22205 2936 c-85 -38 -106 -133 -44 -196 72 -71 203 -36 223 61 18
90 -94 175 -179 135z"/>
<path d="M27200 2180 l0 -710 105 0 105 0 0 710 0 710 -105 0 -105 0 0 -710z"/>
<path d="M33540 2665 l0 -125 -80 0 -80 0 0 -85 0 -85 80 0 80 0 0 -342 c0
-206 4 -358 10 -380 18 -62 69 -120 135 -153 55 -28 68 -30 167 -30 62 0 111
4 118 11 7 7 5 34 -7 90 l-16 79 -68 0 c-58 0 -71 4 -93 24 -14 14 -30 41 -36
60 -6 20 -10 169 -10 339 l0 302 110 0 110 0 0 85 0 85 -110 0 -110 0 0 125 0
125 -100 0 -100 0 0 -125z"/>
<path d="M23148 2531 c-73 -24 -128 -68 -159 -126 -13 -25 -27 -45 -31 -45 -5
0 -8 41 -8 90 l0 91 -97 -3 -98 -3 -3 -532 -2 -533 104 0 105 0 3 368 c3 354
4 368 25 407 70 131 231 166 331 72 52 -48 52 -49 52 -462 l0 -385 105 0 105
0 0 359 c0 396 3 417 62 478 95 98 274 75 333 -42 19 -38 20 -63 23 -417 l3
-378 100 0 99 0 0 398 c0 476 -5 506 -97 594 -64 62 -123 83 -233 83 -81 0
-103 -4 -151 -27 -67 -31 -132 -87 -149 -128 -16 -38 -24 -38 -40 0 -18 44
-86 109 -137 132 -65 29 -174 33 -245 9z"/>
<path d="M25009 2532 c-72 -24 -121 -62 -161 -123 -17 -27 -35 -49 -40 -49 -4
0 -8 41 -8 90 l0 90 -100 0 -100 0 0 -735 0 -735 105 0 105 0 1 283 0 282 22
-30 c86 -117 171 -159 312 -153 75 3 101 9 157 35 164 77 254 240 265 478 12
275 -99 487 -293 557 -82 29 -193 33 -265 10z m203 -195 c94 -55 138 -148 146
-307 7 -174 -41 -302 -140 -367 -36 -24 -53 -28 -127 -31 -80 -3 -90 -1 -137
27 -101 59 -149 170 -149 341 0 190 62 311 184 357 58 22 169 12 223 -20z"/>
<path d="M28085 2539 c-134 -30 -219 -89 -266 -184 -29 -60 -31 -71 -27 -139
4 -56 11 -85 31 -119 55 -93 122 -128 342 -178 161 -36 177 -43 216 -87 27
-31 31 -41 26 -79 -9 -86 -91 -136 -217 -136 -97 0 -157 25 -199 84 -17 23
-31 48 -31 56 0 7 -8 13 -17 12 -34 -1 -173 -25 -179 -32 -14 -14 30 -109 73
-157 79 -88 192 -130 348 -130 157 0 282 46 359 131 111 123 101 317 -21 403
-61 43 -115 62 -281 102 -79 19 -156 41 -172 49 -72 37 -94 125 -45 184 39 45
99 64 193 60 68 -4 84 -8 116 -33 31 -23 67 -67 78 -97 5 -11 188 24 188 36 0
27 -53 118 -90 155 -91 91 -273 133 -425 99z"/>
<path d="M29283 2539 c-103 -17 -195 -65 -256 -133 -31 -35 -67 -98 -67 -118
0 -9 33 -21 93 -34 l92 -20 16 26 c25 41 95 96 138 108 104 32 223 2 268 -66
27 -41 39 -115 25 -147 -14 -30 -51 -41 -207 -60 -217 -26 -310 -55 -379 -116
-54 -46 -78 -101 -84 -185 -7 -110 16 -176 87 -245 73 -71 147 -99 266 -99
137 0 230 41 295 132 l30 41 0 -76 0 -77 100 0 100 0 1 363 c1 199 0 378 -1
397 -3 82 -53 183 -113 230 -91 72 -254 104 -404 79z m315 -646 c-6 -114 -24
-159 -87 -216 -78 -70 -221 -87 -312 -35 -76 42 -101 132 -56 199 34 52 99 78
250 101 72 11 148 26 167 33 19 7 37 13 39 14 2 0 2 -43 -1 -96z"/>
<path d="M30578 2533 c-59 -20 -122 -72 -151 -127 l-22 -41 -3 88 -3 87 -99 0
-100 0 0 -535 0 -535 100 0 100 0 0 319 c0 175 5 343 10 372 13 69 53 125 115
164 45 28 55 30 147 30 l98 0 0 98 0 97 -72 -1 c-40 0 -94 -7 -120 -16z"/>
<path d="M32533 2535 c-122 -27 -212 -83 -267 -167 -55 -84 -53 -89 34 -110
107 -25 113 -24 143 21 40 61 104 93 193 99 142 9 215 -45 222 -164 4 -61 4
-63 -27 -82 -21 -13 -76 -24 -172 -36 -374 -46 -479 -125 -467 -350 7 -132 59
-210 178 -265 77 -36 229 -42 312 -13 68 24 121 63 160 116 l28 39 0 -76 0
-77 100 0 101 0 -3 413 c-3 409 -3 412 -27 464 -70 156 -287 236 -508 188z
m327 -645 c0 -101 -11 -138 -59 -192 -50 -57 -112 -82 -206 -82 -94 -1 -146
20 -182 74 -33 48 -32 118 3 160 42 49 93 69 237 91 72 11 143 24 157 28 49
18 50 17 50 -79z"/>
<path d="M34710 2541 c-80 -25 -162 -94 -176 -148 -13 -49 -24 -19 -24 62 l0
85 -100 0 -100 0 0 -535 0 -535 105 0 105 0 0 357 c0 341 1 359 21 400 44 92
142 139 266 130 l73 -5 0 99 0 99 -72 -1 c-40 0 -84 -4 -98 -8z"/>
<path d="M35483 2539 c-114 -19 -220 -78 -275 -152 -27 -37 -54 -94 -50 -106
2 -7 142 -40 169 -41 14 0 29 12 42 34 25 39 84 82 132 96 56 16 150 12 196
-9 51 -24 89 -79 98 -142 6 -39 3 -50 -17 -73 -22 -26 -34 -29 -168 -47 -254
-33 -328 -55 -400 -116 -121 -104 -123 -319 -3 -437 64 -63 133 -89 253 -94
145 -6 241 34 311 131 l29 40 0 -76 0 -77 100 0 101 0 -3 413 c-3 409 -3 412
-27 464 -67 149 -269 228 -488 192z m315 -646 c-6 -115 -25 -162 -90 -217 -80
-69 -213 -85 -307 -37 -78 40 -105 132 -58 202 34 52 99 78 244 100 71 11 146
26 168 33 22 8 42 15 44 15 2 1 2 -43 -1 -96z"/>
<path d="M36723 2536 c-187 -48 -315 -189 -357 -398 -30 -148 -11 -320 50
-440 31 -62 114 -151 169 -183 143 -83 374 -87 526 -9 68 34 135 103 166 170
14 30 23 57 22 58 -13 11 -194 36 -197 27 -11 -34 -67 -92 -109 -112 -40 -20
-63 -24 -138 -24 -78 0 -97 4 -141 27 -29 15 -66 44 -83 65 -39 47 -71 131
-71 183 l0 40 375 0 375 0 0 92 c0 190 -70 350 -189 432 -99 69 -281 102 -398
72z m203 -171 c93 -28 166 -117 181 -220 l6 -45 -277 0 -276 0 0 28 c1 61 65
165 126 203 81 50 153 60 240 34z"/>
<path d="M38039 2531 c-66 -26 -113 -64 -140 -116 -13 -25 -27 -45 -31 -45 -5
0 -8 38 -8 85 l0 85 -100 0 -100 0 0 -535 0 -535 105 0 105 0 0 353 c0 390 1
397 68 463 54 54 96 69 200 69 l92 0 0 98 0 97 -72 0 c-46 -1 -90 -8 -119 -19z"/>
<path d="M40020 2534 c-89 -24 -156 -63 -220 -130 -99 -103 -143 -229 -144
-409 0 -118 20 -208 69 -305 75 -147 237 -240 420 -240 225 0 386 115 431 307
l12 53 -99 0 -99 0 -15 -37 c-41 -99 -114 -146 -224 -146 -163 0 -270 122
-288 329 -15 179 50 330 168 390 63 31 171 34 228 5 48 -25 110 -94 118 -131
l6 -30 102 0 103 0 -12 53 c-36 150 -144 253 -308 292 -79 18 -176 18 -248 -1z"/>
<path d="M41330 2541 c-77 -24 -139 -72 -173 -136 l-22 -40 -3 88 -3 87 -99 0
-100 0 0 -535 0 -535 105 0 104 0 3 369 3 369 30 43 c17 24 53 57 80 74 45 28
55 30 147 30 l98 0 0 98 0 97 -72 -1 c-40 0 -84 -4 -98 -8z"/>
<path d="M42070 2532 c-160 -42 -267 -146 -327 -318 -25 -72 -27 -92 -27 -219
0 -127 2 -147 27 -218 33 -94 64 -145 125 -203 85 -82 201 -124 342 -124 153
0 269 42 357 128 38 36 102 147 92 156 -11 10 -194 34 -197 26 -12 -34 -67
-91 -109 -111 -40 -20 -63 -24 -138 -24 -78 0 -97 4 -141 27 -86 45 -139 126
-153 234 l-8 54 379 0 378 0 0 93 c0 161 -46 290 -135 383 -112 114 -295 160
-465 116z m216 -167 c93 -28 166 -117 181 -220 l6 -45 -277 0 -276 0 0 28 c1
61 65 165 126 203 81 50 153 60 240 34z"/>
<path d="M43380 2543 c-49 -7 -146 -46 -186 -74 -141 -96 -218 -264 -218 -474
0 -275 127 -463 359 -530 81 -24 237 -17 318 15 133 50 218 153 251 303 l6 27
-100 0 -100 0 -15 -37 c-41 -99 -114 -146 -224 -146 -152 0 -253 105 -282 295
-21 134 13 280 86 366 45 54 112 82 195 82 39 0 85 -6 103 -14 45 -18 96 -72
119 -123 l19 -43 100 0 99 0 -6 28 c-36 169 -143 276 -316 317 -59 14 -150 17
-208 8z"/>
<path d="M44575 2536 c-173 -45 -283 -151 -342 -329 -23 -71 -27 -99 -27 -207
-1 -132 17 -219 66 -314 30 -60 121 -149 180 -179 191 -96 446 -71 595 58 37
31 114 159 102 169 -6 5 -191 37 -193 34 -32 -56 -65 -92 -103 -115 -44 -25
-57 -28 -143 -28 -88 0 -99 2 -150 31 -89 50 -150 152 -150 251 l0 33 375 0
375 0 0 93 c-1 310 -166 499 -450 513 -52 2 -105 -2 -135 -10z m204 -172 c96
-28 181 -140 181 -236 l0 -28 -275 0 c-255 0 -275 1 -275 18 0 65 59 168 119
208 83 55 157 66 250 38z"/>
<path d="M45883 2529 c-57 -22 -124 -82 -143 -129 -21 -51 -30 -34 -30 55 l0
86 -97 -3 -98 -3 -3 -532 -2 -533 105 0 105 0 0 343 c0 212 4 357 11 381 15
53 79 119 141 146 44 19 65 22 130 18 l78 -5 0 99 0 98 -72 -1 c-48 0 -91 -7
-125 -20z"/>
<path d="M22150 2005 l0 -535 105 0 105 0 0 535 0 535 -105 0 -105 0 0 -535z"/>
<path d="M25920 2171 c0 -204 4 -392 10 -422 15 -78 64 -172 112 -214 89 -76
244 -99 365 -54 63 24 144 93 163 139 21 51 30 33 30 -60 l0 -90 100 0 100 0
0 535 0 535 -99 0 -100 0 -3 -352 c-3 -387 -3 -388 -67 -460 -45 -51 -113 -81
-187 -82 -83 -1 -146 37 -186 113 l-28 53 0 364 0 364 -105 0 -105 0 0 -369z"/>
<path d="M31002 1543 c-7 -65 -26 -185 -42 -268 -16 -82 -30 -151 -30 -152 0
-2 32 -3 71 -3 l70 0 14 34 c44 104 125 421 125 486 0 19 -7 20 -98 20 l-99 0
-11 -117z"/>
<path d="M38476 1638 c-3 -13 -8 -59 -11 -104 -3 -44 -21 -156 -39 -247 l-33
-167 73 0 73 0 40 123 c49 152 77 262 89 350 l9 67 -99 0 c-93 0 -98 -1 -102
-22z"/>
</g>
</svg>
