<?xml version="1.0" standalone="no"?>
<!DOCTYPE svg PUBLIC "-//W3C//DTD SVG 20010904//EN"
 "http://www.w3.org/TR/2001/REC-SVG-20010904/DTD/svg10.dtd">
<svg version="1.0" xmlns="http://www.w3.org/2000/svg"
 width="750.000000pt" height="750.000000pt" viewBox="0 0 750.000000 750.000000"
 preserveAspectRatio="xMidYMid meet">

<g transform="translate(0.000000,750.000000) scale(0.100000,-0.100000)"
fill="#000000" stroke="none">
<path d="M3920 5604 c-96 -168 -176 -309 -178 -314 -2 -6 62 -11 148 -12 l151
-3 236 -410 c129 -225 304 -530 389 -677 l153 -267 -147 -256 -147 -255 -1136
0 -1137 0 177 -310 176 -310 1141 0 1142 0 138 238 c76 130 223 382 326 560
103 178 188 329 188 335 -1 7 -256 455 -569 997 l-568 985 -154 3 -154 2 -175
-306z"/>
<path d="M430 1610 l0 -420 330 0 330 0 0 55 0 55 -275 0 -275 0 0 125 0 125
213 2 212 3 3 52 3 53 -213 2 -213 3 0 125 0 125 273 3 273 2 -3 53 -3 52
-327 3 -328 2 0 -420z"/>
<path d="M1180 1610 l0 -420 55 0 55 0 0 180 0 180 210 0 210 0 0 55 0 55
-210 0 -210 0 0 130 0 130 270 0 270 0 0 55 0 55 -325 0 -325 0 0 -420z"/>
<path d="M1920 1610 l0 -420 55 0 55 0 0 180 0 180 210 0 210 0 0 55 0 55
-210 0 -210 0 0 130 0 130 270 0 270 0 0 55 0 55 -325 0 -325 0 0 -420z"/>
<path d="M2650 1610 l0 -420 55 0 55 0 0 420 0 420 -55 0 -55 0 0 -420z"/>
<path d="M2869 1968 c10 -35 65 -224 122 -420 l103 -358 58 0 c32 0 58 2 58 5
0 14 174 641 179 647 3 4 47 -140 96 -320 l90 -327 57 -3 57 -3 20 68 c60 207
221 765 221 769 0 2 -25 4 -55 4 -48 0 -57 -3 -64 -22 -5 -13 -46 -161 -92
-330 -46 -169 -86 -302 -90 -295 -6 11 -179 632 -179 642 0 3 -26 5 -58 5
l-57 0 -90 -329 c-50 -182 -93 -327 -96 -323 -3 4 -41 138 -84 297 -43 160
-82 305 -87 323 -9 31 -10 32 -68 32 l-59 0 18 -62z"/>
<path d="M4287 2023 c-7 -11 -318 -793 -324 -815 -5 -16 2 -18 54 -18 l58 0
45 110 44 110 211 0 212 0 43 -110 43 -110 59 0 c32 0 58 3 58 8 0 4 -74 192
-164 417 l-164 410 -85 3 c-47 1 -88 -1 -90 -5z m179 -318 l72 -180 -160 -3
c-89 -1 -162 -1 -164 1 -3 2 28 82 67 178 39 96 76 185 81 199 9 24 10 24 21
5 6 -11 43 -101 83 -200z"/>
<path d="M4950 2012 c-61 -30 -71 -65 -68 -234 5 -227 4 -227 340 -227 192 -1
229 -3 242 -17 12 -12 16 -37 16 -108 0 -134 20 -126 -303 -126 l-267 0 0 -55
0 -55 291 0 c400 0 389 -7 389 235 0 110 -4 153 -15 175 -30 59 -37 60 -295
60 -295 0 -280 -7 -280 130 0 76 4 102 16 114 13 14 53 16 285 16 l269 0 0 55
0 55 -292 0 c-259 0 -297 -2 -328 -18z"/>
<path d="M5680 1975 l0 -55 150 0 150 0 0 -365 0 -365 55 0 55 0 0 365 0 365
150 0 150 0 0 55 0 55 -355 0 -355 0 0 -55z"/>
<path d="M6480 1610 l0 -420 325 0 325 0 0 55 0 55 -270 0 -270 0 0 125 0 125
210 0 210 0 0 55 0 55 -210 0 -210 0 0 130 0 130 270 0 270 0 0 55 0 55 -325
0 -325 0 0 -420z"/>
</g>
</svg>
