<?xml version="1.0" standalone="no"?>
<!DOCTYPE svg PUBLIC "-//W3C//DTD SVG 20010904//EN"
 "http://www.w3.org/TR/2001/REC-SVG-20010904/DTD/svg10.dtd">
<svg version="1.0" xmlns="http://www.w3.org/2000/svg"
 width="969.000000pt" height="948.000000pt" viewBox="0 0 969.000000 948.000000"
 preserveAspectRatio="xMidYMid meet">

<g transform="translate(0.000000,948.000000) scale(0.100000,-0.100000)"
fill="#000000" stroke="none">
<path d="M4185 7754 c-93 -24 -131 -40 -183 -78 -99 -73 -166 -198 -202 -376
-12 -57 -22 -106 -24 -107 -1 -1 -25 21 -54 50 -28 29 -77 66 -109 82 -49 25
-69 30 -133 29 -129 -1 -218 -67 -282 -207 -49 -108 -68 -389 -35 -514 8 -29
12 -55 9 -58 -3 -2 -22 -2 -43 1 -21 4 -60 1 -88 -6 -140 -33 -235 -186 -233
-375 2 -202 118 -484 286 -695 58 -72 74 -96 60 -88 -5 2 -25 12 -44 21 -19 8
-71 32 -115 52 -297 137 -563 149 -733 33 -145 -100 -203 -270 -155 -448 45
-164 222 -356 408 -444 22 -10 48 -22 58 -27 9 -5 39 -16 65 -25 26 -8 61 -21
77 -29 17 -7 48 -17 70 -20 22 -4 45 -11 50 -15 6 -4 24 -10 40 -13 17 -3 80
-17 140 -32 182 -43 295 -55 645 -67 445 -17 2005 -17 2445 -1 294 11 528 31
555 48 5 3 48 14 97 24 48 11 104 24 123 29 19 6 60 17 90 25 128 34 266 96
378 170 77 51 174 140 185 170 4 9 10 17 16 17 13 0 76 110 94 166 53 163 13
336 -101 434 -112 97 -259 135 -434 111 -127 -17 -302 -76 -443 -150 -86 -45
-88 -43 -27 32 267 327 375 700 269 930 -47 101 -135 165 -238 174 l-58 6 5
51 c3 28 7 67 8 86 2 19 7 58 10 86 9 63 -17 244 -47 324 -91 248 -351 302
-534 112 -34 -36 -37 -35 -47 23 -14 82 -66 232 -101 289 -19 32 -52 75 -73
94 -83 79 -247 127 -345 102 -165 -41 -252 -152 -277 -356 -19 -151 19 -363
89 -502 33 -66 113 -175 144 -197 25 -17 26 -16 -38 -48 -99 -50 -200 -178
-237 -302 -62 -207 27 -471 231 -686 32 -33 53 -62 47 -64 -163 -43 -272 -107
-380 -223 -38 -41 -146 -202 -146 -217 0 -7 -8 -20 -19 -29 -18 -16 -21 -13
-80 82 -72 118 -154 203 -271 281 -86 57 -109 68 -190 92 -25 7 -48 14 -53 17
-4 2 22 36 59 75 141 152 230 327 238 470 2 30 6 59 9 64 3 5 -3 46 -14 91
-38 165 -116 274 -255 358 -17 10 -13 17 40 75 75 82 127 173 159 276 26 80
51 200 46 218 -1 6 1 26 5 45 11 52 -20 225 -53 295 -35 76 -75 116 -155 155
-63 31 -152 46 -201 34z m-616 -568 c81 -42 132 -144 150 -296 6 -52 11 -106
11 -120 0 -40 -8 -161 -14 -210 -3 -25 -8 -69 -10 -98 -3 -29 -8 -63 -12 -75
-4 -12 -7 -30 -5 -40 1 -10 -7 -50 -19 -88 -11 -39 -30 -117 -40 -175 -11 -58
-22 -110 -26 -115 -12 -20 -32 12 -54 84 -35 114 -68 185 -123 264 -97 139
-117 195 -138 395 -21 196 15 393 83 455 49 44 132 52 197 19z m2792 9 c50
-17 76 -51 102 -130 16 -49 37 -185 36 -235 0 -14 0 -43 1 -65 1 -49 -25 -192
-47 -260 -9 -27 -33 -68 -53 -91 -76 -83 -144 -207 -190 -349 -22 -68 -45
-104 -57 -91 -22 22 -102 644 -101 791 1 234 67 389 184 430 51 18 71 18 125
0z m-2077 -723 c17 -9 49 -45 72 -78 50 -74 69 -166 54 -260 -19 -121 -127
-291 -257 -407 -78 -70 -320 -230 -337 -224 -31 12 -27 205 9 477 39 292 57
347 136 426 73 72 136 97 228 90 35 -3 77 -14 95 -24z m1430 -1 c93 -40 167
-145 211 -295 29 -104 61 -401 50 -481 -4 -27 -6 -71 -5 -96 1 -53 -14 -99
-33 -99 -26 0 -303 192 -365 253 -79 78 -157 189 -195 280 -25 61 -29 84 -30
166 0 81 3 103 23 141 38 75 72 112 125 137 42 20 60 23 113 19 34 -3 82 -14
106 -25z m-2928 -1077 c138 -45 271 -109 471 -227 87 -51 165 -96 173 -100 8
-4 35 -21 60 -37 25 -17 58 -38 74 -48 54 -32 221 -144 241 -162 11 -9 49 -34
85 -54 36 -20 85 -50 110 -66 25 -16 66 -39 92 -51 49 -22 71 -55 47 -70 -18
-11 -155 -23 -169 -14 -6 4 -149 11 -318 16 -392 12 -548 31 -797 101 -101 28
-168 54 -275 106 -93 46 -128 70 -186 127 -45 45 -81 91 -100 130 -26 53 -29
70 -29 155 0 90 2 97 29 133 84 110 274 133 492 61z m4565 9 c61 -27 115 -77
129 -117 24 -74 14 -173 -26 -234 -112 -176 -277 -282 -564 -362 -25 -7 -52
-15 -60 -18 -8 -3 -22 -6 -30 -8 -8 -1 -33 -6 -55 -12 -79 -22 -313 -51 -460
-57 -448 -19 -521 -21 -547 -11 -34 13 -35 20 -5 33 12 6 47 31 77 55 30 25
75 55 100 68 50 25 258 162 335 221 28 21 79 61 115 88 36 27 76 58 90 69 59
46 277 166 390 216 52 22 210 76 250 85 68 15 212 6 261 -16z m-3070 7 c175
-32 355 -201 437 -412 56 -141 92 -281 99 -384 5 -73 4 -84 -10 -84 -9 0 -19
5 -22 10 -3 6 -16 10 -29 10 -12 0 -31 7 -42 15 -10 8 -26 15 -35 15 -9 0 -24
9 -33 19 -10 11 -29 22 -44 26 -14 3 -40 19 -57 34 -17 15 -80 51 -141 80
-259 124 -406 204 -472 254 -73 57 -70 52 -82 119 -11 55 -9 62 31 154 48 110
230 175 400 144z m1419 -14 c120 -38 151 -66 190 -168 19 -48 21 -65 14 -119
l-9 -64 -80 -57 c-44 -32 -133 -85 -198 -118 -64 -33 -125 -64 -135 -69 -9 -5
-57 -28 -107 -51 -49 -23 -109 -55 -133 -71 -24 -16 -46 -29 -49 -29 -3 0 -20
-11 -37 -24 -51 -38 -178 -98 -188 -88 -12 12 -13 50 -3 162 29 337 232 636
479 706 60 16 186 12 256 -10z"/>
<path d="M2031 3443 c-6 -21 -49 -204 -96 -408 -48 -203 -89 -378 -91 -388 -5
-16 0 -18 53 -15 l58 3 14 78 14 77 98 0 c110 0 100 9 120 -97 l12 -63 57 0
58 0 -8 33 c-14 49 -190 804 -190 811 0 3 -20 6 -45 6 -43 0 -45 -1 -54 -37z
m95 -364 c17 -90 30 -167 27 -171 -6 -11 -131 -10 -137 1 -9 15 57 342 68 338
6 -2 24 -77 42 -168z"/>
<path d="M4444 3469 c-16 -5 -41 -20 -54 -34 -21 -22 -25 -39 -30 -113 -5 -86
-5 -87 -32 -90 -26 -3 -28 -6 -28 -53 0 -48 1 -49 30 -49 l30 0 0 -250 0 -250
55 0 55 0 0 250 0 250 50 0 50 0 0 49 0 50 -47 3 -48 3 -3 53 c-4 65 8 82 59
82 l39 0 0 55 0 55 -47 -1 c-27 0 -62 -5 -79 -10z"/>
<path d="M5360 3056 l0 -426 50 0 50 0 0 271 c0 210 3 270 12 267 13 -5 20
-21 137 -340 l73 -198 44 0 44 0 0 425 0 425 -50 0 -50 0 0 -280 c0 -163 -4
-280 -9 -280 -11 0 -12 4 -125 320 l-84 235 -46 3 -46 3 0 -425z"/>
<path d="M4100 3415 l0 -55 55 0 55 0 0 55 0 55 -55 0 -55 0 0 -55z"/>
<path d="M6408 3323 c-3 -88 -3 -88 -30 -91 -26 -3 -28 -6 -28 -53 0 -48 1
-49 30 -49 l30 0 0 -202 c0 -186 2 -206 20 -236 24 -39 73 -62 130 -62 l40 0
0 55 c0 51 -2 55 -23 55 -13 0 -31 8 -41 19 -14 16 -16 41 -14 192 l3 174 38
3 37 3 0 49 0 49 -37 3 -38 3 -3 88 -3 87 -54 0 -54 0 -3 -87z"/>
<path d="M2615 3221 c-16 -10 -39 -28 -49 -40 -27 -30 -36 -26 -36 14 l0 35
-55 0 -55 0 0 -300 0 -300 54 0 55 0 3 216 3 216 33 29 c25 23 42 29 77 29
l45 0 0 60 c0 56 -2 60 -22 60 -13 0 -36 -8 -53 -19z"/>
<path d="M2995 3221 c-16 -10 -39 -28 -49 -40 -27 -30 -36 -26 -36 14 l0 35
-55 0 -55 0 0 -300 0 -300 54 0 55 0 3 215 3 215 27 26 c19 20 39 28 77 32
l51 5 0 58 c0 55 -2 59 -22 59 -13 0 -36 -8 -53 -19z"/>
<path d="M3250 3222 c-20 -11 -46 -38 -60 -63 -24 -42 -25 -50 -25 -224 0
-171 1 -182 24 -221 32 -56 86 -85 156 -85 98 0 161 47 172 129 l6 42 -57 0
c-48 0 -56 -3 -56 -18 0 -28 -32 -52 -68 -52 -46 0 -72 39 -72 106 l0 54 125
0 125 0 0 104 c0 142 -21 195 -92 232 -39 20 -136 18 -178 -4z m144 -101 c13
-14 16 -33 14 -77 l-3 -59 -65 0 -65 0 -3 51 c-2 39 2 56 18 77 26 33 78 37
104 8z"/>
<path d="M3711 3218 c-67 -45 -76 -73 -79 -259 -2 -99 1 -182 7 -206 23 -83
78 -124 169 -124 106 -1 164 40 183 128 7 29 10 55 7 58 -3 3 -29 6 -59 8 -53
2 -54 1 -57 -28 -7 -60 -61 -84 -110 -49 -21 15 -22 21 -22 189 0 168 1 174
22 189 29 20 72 20 92 0 9 -8 16 -31 16 -50 l0 -34 61 0 60 0 -6 48 c-15 105
-62 145 -173 150 -67 3 -81 1 -111 -20z"/>
<path d="M4730 3222 c-21 -10 -45 -34 -60 -62 -24 -43 -25 -52 -25 -225 0
-171 1 -182 24 -221 32 -56 86 -85 156 -85 98 0 161 47 172 129 l6 42 -57 0
c-48 0 -56 -3 -56 -18 0 -28 -32 -52 -68 -52 -46 0 -72 39 -72 106 l0 54 125
0 125 0 0 104 c0 142 -21 195 -92 232 -38 20 -135 18 -178 -4z m144 -101 c13
-14 16 -33 14 -77 l-3 -59 -65 0 -65 0 -3 39 c-4 48 3 80 24 100 22 22 77 20
98 -3z"/>
<path d="M5991 3222 c-43 -21 -68 -56 -77 -104 l-6 -38 56 0 c42 0 56 4 56 14
0 25 30 46 65 46 51 0 66 -22 63 -89 l-3 -56 -69 -8 c-122 -13 -166 -55 -174
-165 -5 -79 8 -129 42 -161 49 -46 137 -43 174 4 26 33 32 31 32 -5 0 -30 0
-30 56 -30 l55 0 -3 253 c-3 232 -5 255 -23 287 -28 47 -76 70 -150 70 -37 0
-73 -7 -94 -18z m159 -391 c0 -69 -18 -98 -67 -107 -26 -5 -37 -1 -57 19 -31
31 -33 70 -6 115 18 30 23 32 75 32 l55 0 0 -59z"/>
<path d="M7405 3221 c-16 -10 -39 -28 -49 -40 -27 -30 -36 -26 -36 14 l0 35
-55 0 -55 0 0 -300 0 -300 55 0 55 0 0 200 c0 215 5 241 52 274 12 9 42 16 65
16 l43 0 0 60 c0 56 -2 60 -22 60 -13 0 -36 -8 -53 -19z"/>
<path d="M7671 3222 c-43 -21 -68 -56 -77 -104 l-6 -38 56 0 c42 0 56 4 56 14
0 25 30 46 65 46 51 0 66 -22 63 -89 l-3 -56 -69 -8 c-122 -13 -166 -55 -174
-165 -2 -40 0 -84 7 -104 31 -94 140 -121 212 -52 l29 28 0 -32 0 -32 56 0 55
0 -3 253 c-3 232 -5 255 -23 287 -28 47 -76 70 -150 70 -37 0 -73 -7 -94 -18z
m159 -392 c0 -51 -4 -65 -25 -85 -33 -34 -77 -33 -104 1 -26 33 -27 70 -1 112
18 30 23 32 75 32 l55 0 0 -60z"/>
<path d="M4100 2930 l0 -300 55 0 55 0 0 300 0 300 -55 0 -55 0 0 -300z"/>
<path d="M6720 2980 c0 -269 5 -301 51 -334 13 -9 43 -16 68 -16 37 0 49 5 77
35 18 19 35 35 38 35 3 0 6 -16 6 -35 l0 -35 55 0 55 0 0 300 0 300 -55 0 -55
0 0 -229 c0 -203 -2 -231 -17 -249 -26 -30 -71 -33 -97 -6 -14 13 -16 50 -16
250 l0 234 -55 0 -55 0 0 -250z"/>
</g>
</svg>
